<?xml version="1.0" encoding="UTF-8"?>
<svg xmlns="http://www.w3.org/2000/svg" xmlns:xlink="http://www.w3.org/1999/xlink" width="375px" height="264px" viewBox="0 0 375 264" version="1.1">
<g id="surface1">
<path style=" stroke:none;fill-rule:nonzero;fill:rgb(94.901961%,94.901961%,94.901961%);fill-opacity:1;" d="M 83.203125 26.445312 L 59.328125 26.445312 C 54.550781 26.449219 50.679688 30.328125 50.671875 35.109375 L 50.671875 61.011719 C 50.367188 60.992188 50.0625 60.96875 49.761719 60.929688 C 34.054688 59.273438 22.199219 45.898438 22.4375 30.09375 C 22.671875 14.289062 34.917969 1.269531 50.671875 0.0859375 C 66.421875 -1.101562 80.472656 9.9375 83.066406 25.53125 C 83.117188 25.835938 83.164062 26.140625 83.203125 26.445312 Z M 83.203125 26.445312 "/>
<path style=" stroke:none;fill-rule:nonzero;fill:rgb(24.705882%,23.921569%,33.72549%);fill-opacity:1;" d="M 365.035156 25.53125 L 59.328125 25.53125 C 54.046875 25.539062 49.765625 29.820312 49.761719 35.109375 L 49.761719 196.515625 C 49.765625 201.804688 54.046875 206.085938 59.328125 206.09375 L 365.035156 206.09375 C 370.316406 206.085938 374.597656 201.804688 374.601562 196.515625 L 374.601562 35.109375 C 374.597656 29.820312 370.316406 25.539062 365.035156 25.53125 Z M 373.691406 196.515625 C 373.6875 201.300781 369.8125 205.179688 365.035156 205.179688 L 59.328125 205.179688 C 54.550781 205.179688 50.679688 201.300781 50.671875 196.515625 L 50.671875 35.109375 C 50.679688 30.328125 54.550781 26.449219 59.328125 26.445312 L 365.035156 26.445312 C 369.8125 26.449219 373.6875 30.328125 373.691406 35.109375 Z M 373.691406 196.515625 "/>
<path style=" stroke:none;fill-rule:nonzero;fill:rgb(24.705882%,23.921569%,33.72549%);fill-opacity:1;" d="M 350 51.691406 L 74.367188 51.691406 C 74.113281 51.691406 73.90625 51.488281 73.90625 51.234375 C 73.90625 50.984375 74.113281 50.78125 74.367188 50.78125 L 350 50.78125 C 350.25 50.78125 350.453125 50.984375 350.453125 51.234375 C 350.453125 51.488281 350.25 51.691406 350 51.691406 Z M 350 51.691406 "/>
<path style=" stroke:none;fill-rule:nonzero;fill:rgb(24.705882%,23.921569%,33.72549%);fill-opacity:1;" d="M 152.273438 186.484375 C 152.019531 186.484375 151.816406 186.28125 151.816406 186.03125 L 151.816406 36.023438 C 151.816406 35.769531 152.019531 35.5625 152.273438 35.5625 C 152.523438 35.5625 152.726562 35.769531 152.726562 36.023438 L 152.726562 186.03125 C 152.726562 186.28125 152.523438 186.484375 152.273438 186.484375 Z M 152.273438 186.484375 "/>
<path style=" stroke:none;fill-rule:nonzero;fill:rgb(24.705882%,23.921569%,33.72549%);fill-opacity:1;" d="M 221.066406 186.484375 C 220.8125 186.484375 220.609375 186.28125 220.609375 186.03125 L 220.609375 36.023438 C 220.609375 35.769531 220.8125 35.5625 221.066406 35.5625 C 221.320312 35.5625 221.523438 35.769531 221.523438 36.023438 L 221.523438 186.03125 C 221.523438 186.28125 221.320312 186.484375 221.066406 186.484375 Z M 221.066406 186.484375 "/>
<path style=" stroke:none;fill-rule:nonzero;fill:rgb(24.705882%,23.921569%,33.72549%);fill-opacity:1;" d="M 289.859375 186.484375 C 289.609375 186.484375 289.40625 186.28125 289.40625 186.03125 L 289.40625 36.023438 C 289.40625 35.769531 289.609375 35.5625 289.859375 35.5625 C 290.113281 35.5625 290.316406 35.769531 290.316406 36.023438 L 290.316406 186.03125 C 290.316406 186.28125 290.113281 186.484375 289.859375 186.484375 Z M 289.859375 186.484375 "/>
<path style=" stroke:none;fill-rule:nonzero;fill:rgb(42.352941%,38.823529%,100%);fill-opacity:1;" d="M 108.039062 98.753906 L 91.390625 98.753906 C 90.261719 98.753906 89.34375 97.835938 89.34375 96.703125 L 89.34375 77.042969 C 89.34375 75.910156 90.261719 74.992188 91.390625 74.992188 L 108.039062 74.992188 C 109.171875 74.992188 110.089844 75.910156 110.089844 77.042969 L 110.089844 96.703125 C 110.089844 97.835938 109.171875 98.753906 108.039062 98.753906 Z M 108.039062 98.753906 "/>
<path style=" stroke:none;fill-rule:nonzero;fill:rgb(42.352941%,38.823529%,100%);fill-opacity:1;" d="M 131.730469 154.835938 L 115.085938 154.835938 C 113.953125 154.835938 113.035156 153.917969 113.03125 152.785156 L 113.03125 133.125 C 113.035156 131.992188 113.953125 131.074219 115.085938 131.074219 L 131.730469 131.074219 C 132.863281 131.074219 133.78125 131.992188 133.78125 133.125 L 133.78125 152.785156 C 133.78125 153.917969 132.863281 154.835938 131.730469 154.835938 Z M 131.730469 154.835938 "/>
<path style=" stroke:none;fill-rule:nonzero;fill:rgb(42.352941%,38.823529%,100%);fill-opacity:1;" d="M 185.492188 110.609375 L 168.84375 110.609375 C 167.710938 110.609375 166.796875 109.691406 166.796875 108.558594 L 166.796875 88.898438 C 166.796875 87.765625 167.710938 86.847656 168.84375 86.84375 L 185.492188 86.84375 C 186.625 86.847656 187.539062 87.765625 187.539062 88.898438 L 187.539062 108.558594 C 187.539062 109.691406 186.625 110.609375 185.492188 110.609375 Z M 185.492188 110.609375 "/>
<path style=" stroke:none;fill-rule:nonzero;fill:rgb(42.352941%,38.823529%,100%);fill-opacity:1;" d="M 255.195312 89.179688 L 238.550781 89.179688 C 237.417969 89.179688 236.5 88.257812 236.5 87.128906 L 236.5 67.46875 C 236.5 66.335938 237.417969 65.414062 238.550781 65.414062 L 255.195312 65.414062 C 256.328125 65.414062 257.246094 66.335938 257.25 67.46875 L 257.25 87.128906 C 257.246094 88.257812 256.328125 89.179688 255.195312 89.179688 Z M 255.195312 89.179688 "/>
<path style=" stroke:none;fill-rule:nonzero;fill:rgb(42.352941%,38.823529%,100%);fill-opacity:1;" d="M 319.4375 89.179688 L 302.789062 89.179688 C 301.65625 89.179688 300.742188 88.257812 300.742188 87.128906 L 300.742188 67.46875 C 300.742188 66.335938 301.65625 65.414062 302.789062 65.414062 L 319.4375 65.414062 C 320.570312 65.414062 321.484375 66.335938 321.484375 67.46875 L 321.484375 87.128906 C 321.484375 88.257812 320.570312 89.179688 319.4375 89.179688 Z M 319.4375 89.179688 "/>
<path style=" stroke:none;fill-rule:nonzero;fill:rgb(90.196078%,90.196078%,90.196078%);fill-opacity:1;" d="M 349.050781 94.648438 L 332.402344 94.648438 C 331.273438 94.648438 330.351562 93.734375 330.351562 92.601562 L 330.351562 72.9375 C 330.351562 71.804688 331.273438 70.890625 332.402344 70.886719 L 349.050781 70.886719 C 350.179688 70.890625 351.101562 71.804688 351.101562 72.9375 L 351.101562 92.601562 C 351.101562 93.734375 350.179688 94.648438 349.050781 94.648438 Z M 349.050781 94.648438 "/>
<path style=" stroke:none;fill-rule:nonzero;fill:rgb(90.196078%,90.196078%,90.196078%);fill-opacity:1;" d="M 335.835938 129.757812 L 319.191406 129.757812 C 318.058594 129.757812 317.140625 128.84375 317.140625 127.710938 L 317.140625 108.046875 C 317.140625 106.914062 318.058594 105.996094 319.191406 105.996094 L 335.835938 105.996094 C 336.96875 105.996094 337.886719 106.914062 337.890625 108.046875 L 337.890625 127.710938 C 337.886719 128.84375 336.96875 129.757812 335.835938 129.757812 Z M 335.835938 129.757812 "/>
<path style=" stroke:none;fill-rule:nonzero;fill:rgb(100%,39.607843%,51.764706%);fill-opacity:1;" d="M 279.34375 122.464844 L 262.695312 122.464844 C 261.5625 122.460938 260.648438 121.546875 260.648438 120.414062 L 260.648438 100.75 C 260.648438 99.617188 261.5625 98.703125 262.695312 98.703125 L 279.34375 98.703125 C 280.476562 98.703125 281.390625 99.617188 281.394531 100.75 L 281.394531 120.414062 C 281.390625 121.546875 280.476562 122.460938 279.34375 122.464844 Z M 279.34375 122.464844 "/>
<path style=" stroke:none;fill-rule:nonzero;fill:rgb(90.196078%,90.196078%,90.196078%);fill-opacity:1;" d="M 247 129.757812 L 230.351562 129.757812 C 229.21875 129.757812 228.300781 128.84375 228.296875 127.710938 L 228.296875 108.046875 C 228.300781 106.914062 229.21875 105.996094 230.351562 105.996094 L 247 105.996094 C 248.128906 105.996094 249.046875 106.914062 249.046875 108.046875 L 249.046875 127.710938 C 249.046875 128.84375 248.128906 129.757812 247 129.757812 Z M 247 129.757812 "/>
<path style=" stroke:none;fill-rule:nonzero;fill:rgb(90.196078%,90.196078%,90.196078%);fill-opacity:1;" d="M 177.289062 160.765625 L 160.640625 160.765625 C 159.511719 160.765625 158.59375 159.84375 158.59375 158.710938 L 158.59375 139.054688 C 158.59375 137.921875 159.511719 137 160.640625 137 L 177.289062 137 C 178.421875 137 179.339844 137.921875 179.34375 139.054688 L 179.34375 158.710938 C 179.339844 159.84375 178.421875 160.765625 177.289062 160.765625 Z M 177.289062 160.765625 "/>
<path style=" stroke:none;fill-rule:nonzero;fill:rgb(100%,39.607843%,51.764706%);fill-opacity:1;" d="M 93.007812 134.773438 L 76.359375 134.773438 C 75.226562 134.773438 74.308594 133.859375 74.308594 132.726562 L 74.308594 113.0625 C 74.308594 111.929688 75.226562 111.011719 76.359375 111.011719 L 93.007812 111.011719 C 94.136719 111.011719 95.054688 111.929688 95.054688 113.0625 L 95.054688 132.726562 C 95.054688 133.859375 94.136719 134.773438 93.007812 134.773438 Z M 93.007812 134.773438 "/>
<path style=" stroke:none;fill-rule:nonzero;fill:rgb(90.196078%,90.196078%,90.196078%);fill-opacity:1;" d="M 139.929688 98.753906 L 123.285156 98.753906 C 122.152344 98.753906 121.234375 97.835938 121.234375 96.703125 L 121.234375 77.042969 C 121.234375 75.910156 122.152344 74.992188 123.285156 74.992188 L 139.929688 74.992188 C 141.0625 74.992188 141.980469 75.910156 141.984375 77.042969 L 141.984375 96.703125 C 141.980469 97.835938 141.0625 98.753906 139.929688 98.753906 Z M 139.929688 98.753906 "/>
<path style=" stroke:none;fill-rule:nonzero;fill:rgb(80%,80%,80%);fill-opacity:1;" d="M 126.304688 44.226562 L 100.335938 44.226562 C 99.328125 44.226562 98.511719 43.414062 98.511719 42.40625 C 98.511719 41.398438 99.328125 40.578125 100.335938 40.578125 L 126.304688 40.578125 C 127.308594 40.578125 128.125 41.398438 128.125 42.40625 C 128.125 43.414062 127.308594 44.226562 126.304688 44.226562 Z M 126.304688 44.226562 "/>
<path style=" stroke:none;fill-rule:nonzero;fill:rgb(80%,80%,80%);fill-opacity:1;" d="M 199.65625 44.226562 L 173.6875 44.226562 C 172.679688 44.226562 171.859375 43.414062 171.859375 42.40625 C 171.859375 41.398438 172.679688 40.578125 173.6875 40.578125 L 199.65625 40.578125 C 200.660156 40.578125 201.476562 41.398438 201.476562 42.40625 C 201.476562 43.414062 200.660156 44.226562 199.65625 44.226562 Z M 199.65625 44.226562 "/>
<path style=" stroke:none;fill-rule:nonzero;fill:rgb(80%,80%,80%);fill-opacity:1;" d="M 268.449219 44.226562 L 242.480469 44.226562 C 241.472656 44.226562 240.65625 43.414062 240.65625 42.40625 C 240.65625 41.398438 241.472656 40.578125 242.480469 40.578125 L 268.449219 40.578125 C 269.453125 40.578125 270.273438 41.398438 270.273438 42.40625 C 270.273438 43.414062 269.453125 44.226562 268.449219 44.226562 Z M 268.449219 44.226562 "/>
<path style=" stroke:none;fill-rule:nonzero;fill:rgb(80%,80%,80%);fill-opacity:1;" d="M 332.6875 44.226562 L 306.71875 44.226562 C 305.710938 44.226562 304.898438 43.414062 304.898438 42.40625 C 304.898438 41.398438 305.710938 40.578125 306.71875 40.578125 L 332.6875 40.578125 C 333.695312 40.578125 334.507812 41.398438 334.507812 42.40625 C 334.507812 43.414062 333.695312 44.226562 332.6875 44.226562 Z M 332.6875 44.226562 "/>
<path style=" stroke:none;fill-rule:nonzero;fill:rgb(100%,72.156863%,72.156863%);fill-opacity:1;" d="M 68.140625 177.773438 C 66.789062 177.640625 65.566406 176.917969 64.804688 175.796875 C 64.039062 174.679688 63.804688 173.273438 64.171875 171.96875 L 52.496094 161.089844 L 58.671875 159.523438 L 70.15625 168.84375 C 72.351562 169.625 73.625 171.929688 73.109375 174.203125 C 72.59375 176.484375 70.460938 178.015625 68.140625 177.773438 Z M 68.140625 177.773438 "/>
<path style=" stroke:none;fill-rule:nonzero;fill:rgb(100%,72.156863%,72.156863%);fill-opacity:1;" d="M 84.265625 258.1875 L 89.851562 258.1875 L 92.507812 236.625 L 84.265625 236.625 Z M 84.265625 258.1875 "/>
<path style=" stroke:none;fill-rule:nonzero;fill:rgb(18.431373%,18.039216%,25.490196%);fill-opacity:1;" d="M 100.621094 263.375 L 83.066406 263.378906 L 83.066406 256.59375 L 93.835938 256.589844 C 97.585938 256.589844 100.621094 259.628906 100.621094 263.375 Z M 100.621094 263.375 "/>
<path style=" stroke:none;fill-rule:nonzero;fill:rgb(100%,72.156863%,72.156863%);fill-opacity:1;" d="M 45.96875 254.152344 L 51.367188 255.589844 L 59.476562 235.4375 L 51.507812 233.316406 Z M 45.96875 254.152344 "/>
<path style=" stroke:none;fill-rule:nonzero;fill:rgb(18.431373%,18.039216%,25.490196%);fill-opacity:1;" d="M 60.4375 263.378906 L 43.476562 258.859375 L 45.21875 252.300781 L 55.632812 255.074219 C 59.25 256.039062 61.40625 259.757812 60.4375 263.378906 Z M 60.4375 263.378906 "/>
<path style=" stroke:none;fill-rule:nonzero;fill:rgb(18.431373%,18.039216%,25.490196%);fill-opacity:1;" d="M 91.351562 254.105469 L 82.828125 254.105469 C 81.710938 254.109375 80.78125 253.257812 80.675781 252.148438 L 75.5 198.375 C 75.421875 197.5625 74.78125 196.917969 73.96875 196.839844 C 73.15625 196.757812 72.398438 197.265625 72.164062 198.050781 L 57.140625 248.296875 C 56.8125 249.40625 55.667969 250.058594 54.546875 249.777344 L 46.617188 247.792969 C 46.058594 247.652344 45.578125 247.296875 45.28125 246.800781 C 44.988281 246.304688 44.90625 245.710938 45.046875 245.15625 C 45.175781 244.648438 57.992188 194.53125 58.101562 194.015625 C 61.007812 172.601562 64.480469 166.859375 66.34375 163.777344 C 66.5 163.523438 66.640625 163.289062 66.769531 163.066406 C 66.929688 162.789062 67.914062 160.039062 68.539062 158.25 C 68.703125 157.664062 69.105469 157.171875 69.648438 156.890625 C 77.492188 152.878906 86.664062 155.65625 89.289062 156.601562 C 89.726562 156.757812 90.097656 157.046875 90.351562 157.429688 C 98.226562 169.320312 94.367188 238.359375 93.507812 252.078125 C 93.4375 253.21875 92.492188 254.105469 91.351562 254.105469 Z M 91.351562 254.105469 "/>
<path style=" stroke:none;fill-rule:nonzero;fill:rgb(100%,72.156863%,72.156863%);fill-opacity:1;" d="M 80.546875 106.703125 C 80.546875 112.890625 75.539062 117.90625 69.359375 117.90625 C 63.175781 117.90625 58.164062 112.890625 58.164062 106.703125 C 58.164062 100.519531 63.175781 95.507812 69.359375 95.507812 C 75.539062 95.507812 80.546875 100.519531 80.546875 106.703125 Z M 80.546875 106.703125 "/>
<path style=" stroke:none;fill-rule:nonzero;fill:rgb(80%,80%,80%);fill-opacity:1;" d="M 68.171875 160.421875 L 68.089844 160.34375 C 67.9375 160.199219 53.03125 145.582031 54.960938 132.0625 C 55.785156 126.28125 60.460938 122.589844 68.476562 121.382812 C 74.566406 120.476562 80.390625 124.195312 82.144531 130.101562 L 90.070312 157.222656 Z M 68.171875 160.421875 "/>
<path style=" stroke:none;fill-rule:nonzero;fill:rgb(80%,80%,80%);fill-opacity:1;" d="M 60.539062 170.820312 L 49.914062 160.257812 C 48.4375 158.777344 47.835938 156.636719 48.332031 154.605469 L 53.476562 133.667969 C 53.785156 132.398438 54.609375 131.320312 55.746094 130.679688 C 56.882812 130.039062 58.234375 129.898438 59.476562 130.296875 C 61.917969 131.078125 63.289062 133.664062 62.582031 136.125 L 57.164062 154.546875 L 65.921875 163.957031 Z M 60.539062 170.820312 "/>
<path style=" stroke:none;fill-rule:nonzero;fill:rgb(100%,72.156863%,72.156863%);fill-opacity:1;" d="M 117.523438 134.765625 C 116.953125 135.996094 115.867188 136.914062 114.5625 137.265625 C 113.25 137.621094 111.851562 137.375 110.742188 136.601562 L 96.558594 143.957031 L 97.1875 137.710938 L 109.757812 129.921875 C 111.21875 128.097656 113.808594 127.65625 115.789062 128.890625 C 117.773438 130.125 118.515625 132.648438 117.523438 134.765625 Z M 117.523438 134.765625 "/>
<path style=" stroke:none;fill-rule:nonzero;fill:rgb(80%,80%,80%);fill-opacity:1;" d="M 109.195312 139.414062 L 95.367188 145.394531 C 93.496094 146.195312 91.34375 145.96875 89.679688 144.785156 L 72.101562 132.179688 C 71.039062 131.417969 70.34375 130.25 70.171875 128.957031 C 70 127.664062 70.375 126.355469 71.203125 125.34375 C 72.835938 123.371094 75.742188 123.054688 77.765625 124.632812 L 92.84375 136.503906 L 104.824219 131.867188 Z M 109.195312 139.414062 "/>
<path style=" stroke:none;fill-rule:nonzero;fill:rgb(18.431373%,18.039216%,25.490196%);fill-opacity:1;" d="M 71.210938 110.292969 C 72.59375 108.5625 75.171875 108.46875 77.070312 107.328125 C 79.550781 105.832031 80.578125 102.492188 79.777344 99.703125 C 78.976562 96.914062 76.617188 94.742188 73.910156 93.703125 C 71.203125 92.664062 68.195312 92.648438 65.335938 93.148438 C 61.085938 93.898438 56.902344 95.882812 54.3125 99.335938 C 51.71875 102.789062 51.054688 107.851562 53.40625 111.472656 C 54.484375 113.136719 56.15625 114.511719 56.585938 116.449219 C 57.148438 118.992188 55.367188 121.445312 53.457031 123.21875 C 51.28125 125.238281 48.785156 126.929688 46.875 129.203125 C 44.96875 131.476562 43.699219 134.585938 44.570312 137.421875 C 45.296875 139.804688 47.421875 141.554688 49.746094 142.433594 C 52.070312 143.3125 54.605469 143.4375 57.089844 143.484375 C 59.503906 143.53125 62.070312 143.476562 64.101562 142.171875 C 66.277344 140.777344 67.4375 138.132812 67.523438 135.546875 C 67.609375 132.960938 66.75 130.429688 65.59375 128.117188 C 64.902344 126.742188 64.101562 125.40625 63.640625 123.933594 C 63.183594 122.460938 63.105469 120.789062 63.835938 119.4375 C 64.609375 118.011719 66.171875 117.152344 67.757812 116.839844 C 67.839844 116.824219 67.929688 116.808594 68.019531 116.796875 C 68.933594 116.679688 69.757812 116.1875 70.304688 115.445312 C 70.847656 114.703125 71.066406 113.769531 70.90625 112.859375 C 70.726562 111.851562 70.742188 110.886719 71.210938 110.292969 Z M 71.210938 110.292969 "/>
<path style=" stroke:none;fill-rule:nonzero;fill:rgb(62.745098%,38.039216%,41.568627%);fill-opacity:1;" d="M 220.40625 258.664062 L 214.820312 258.664062 L 212.164062 237.101562 L 220.40625 237.101562 Z M 220.40625 258.664062 "/>
<path style=" stroke:none;fill-rule:nonzero;fill:rgb(18.431373%,18.039216%,25.490196%);fill-opacity:1;" d="M 210.832031 257.070312 L 221.601562 257.070312 L 221.601562 263.855469 L 204.046875 263.855469 C 204.046875 260.109375 207.085938 257.070312 210.832031 257.070312 Z M 210.832031 257.070312 "/>
<path style=" stroke:none;fill-rule:nonzero;fill:rgb(62.745098%,38.039216%,41.568627%);fill-opacity:1;" d="M 260.9375 252.335938 L 255.851562 254.65625 L 244.484375 236.148438 L 251.984375 232.71875 Z M 260.9375 252.335938 "/>
<path style=" stroke:none;fill-rule:nonzero;fill:rgb(18.431373%,18.039216%,25.490196%);fill-opacity:1;" d="M 251.5625 254.859375 L 261.359375 250.382812 L 264.179688 256.554688 L 248.210938 263.855469 C 246.65625 260.445312 248.15625 256.421875 251.5625 254.859375 Z M 251.5625 254.859375 "/>
<path style=" stroke:none;fill-rule:nonzero;fill:rgb(62.745098%,38.039216%,41.568627%);fill-opacity:1;" d="M 244.667969 185.96875 C 245.75 185.148438 246.417969 183.898438 246.488281 182.539062 C 246.5625 181.1875 246.027344 179.867188 245.03125 178.945312 L 251.601562 164.035156 L 243.257812 165.449219 L 238.304688 179.390625 C 236.828125 181.203125 236.945312 183.832031 238.570312 185.507812 C 240.191406 187.1875 242.8125 187.382812 244.667969 185.96875 Z M 244.667969 185.96875 "/>
<path style=" stroke:none;fill-rule:nonzero;fill:rgb(18.431373%,18.039216%,25.490196%);fill-opacity:1;" d="M 220.050781 252.980469 L 214.714844 252.980469 C 213.640625 252.976562 212.75 252.148438 212.671875 251.078125 L 209.757812 173.308594 C 209.71875 172.707031 209.941406 172.117188 210.375 171.691406 C 210.804688 171.269531 211.402344 171.0625 212.003906 171.117188 L 242.867188 174.398438 C 243.898438 174.5 244.695312 175.359375 244.714844 176.402344 L 245.359375 210.703125 C 245.367188 210.890625 245.398438 211.078125 245.46875 211.25 L 258.125 244.101562 C 258.324219 244.617188 258.308594 245.1875 258.082031 245.6875 C 257.855469 246.1875 257.4375 246.578125 256.921875 246.765625 L 251.515625 248.757812 C 250.542969 249.117188 249.457031 248.695312 248.984375 247.773438 L 233.433594 217.511719 C 233.347656 217.347656 233.289062 217.171875 233.25 216.992188 L 230.59375 204.179688 C 230.433594 203.414062 229.742188 202.875 228.960938 202.914062 C 228.179688 202.945312 227.539062 203.546875 227.445312 204.324219 L 222.085938 251.164062 C 221.96875 252.195312 221.09375 252.980469 220.050781 252.980469 Z M 220.050781 252.980469 "/>
<path style=" stroke:none;fill-rule:nonzero;fill:rgb(62.745098%,38.039216%,41.568627%);fill-opacity:1;" d="M 233.898438 101.304688 C 233.898438 107.488281 228.890625 112.5 222.710938 112.5 C 216.527344 112.5 211.515625 107.488281 211.515625 101.304688 C 211.515625 95.117188 216.527344 90.105469 222.710938 90.105469 C 228.890625 90.105469 233.898438 95.117188 233.898438 101.304688 Z M 233.898438 101.304688 "/>
<path style=" stroke:none;fill-rule:nonzero;fill:rgb(42.352941%,38.823529%,100%);fill-opacity:1;" d="M 230.382812 180.421875 C 222.792969 180.335938 215.386719 178.09375 209.027344 173.945312 L 208.917969 173.871094 L 208.929688 173.738281 L 213.210938 123.851562 C 213.515625 120.351562 216.355469 117.613281 219.859375 117.4375 C 225.40625 117.183594 232.859375 117.507812 236.847656 120.476562 C 242.875 124.96875 245.78125 131.738281 244.820312 139.039062 C 242.824219 154.1875 245.085938 174.617188 245.347656 176.898438 L 245.367188 177.0625 L 245.21875 177.132812 C 240.570312 179.296875 235.507812 180.417969 230.382812 180.421875 Z M 230.382812 180.421875 "/>
<path style=" stroke:none;fill-rule:nonzero;fill:rgb(42.352941%,38.823529%,100%);fill-opacity:1;" d="M 245.296875 176.984375 C 244.65625 176.984375 244.050781 176.714844 243.617188 176.242188 L 241.171875 173.570312 C 240.632812 172.980469 240.445312 172.152344 240.664062 171.382812 L 246.25 152.480469 L 237.757812 134.632812 C 237.359375 133.796875 237.261719 132.851562 237.480469 131.953125 C 237.875 130.335938 239.222656 129.132812 240.871094 128.921875 C 242.519531 128.710938 244.125 129.539062 244.914062 131 L 256.4375 149.714844 C 257.390625 151.257812 257.511719 153.171875 256.765625 154.820312 L 247.375 175.640625 C 247.0625 176.339844 246.414062 176.835938 245.660156 176.953125 C 245.539062 176.976562 245.417969 176.984375 245.296875 176.984375 Z M 245.296875 176.984375 "/>
<path style=" stroke:none;fill-rule:nonzero;fill:rgb(62.745098%,38.039216%,41.568627%);fill-opacity:1;" d="M 166.421875 140.867188 C 167.511719 141.679688 168.902344 141.964844 170.21875 141.648438 C 171.539062 141.335938 172.648438 140.453125 173.257812 139.238281 L 189.402344 141.335938 L 185.691406 133.726562 L 170.929688 132.898438 C 168.773438 132 166.289062 132.851562 165.140625 134.882812 C 163.992188 136.914062 164.539062 139.488281 166.421875 140.867188 Z M 166.421875 140.867188 "/>
<path style=" stroke:none;fill-rule:nonzero;fill:rgb(42.352941%,38.823529%,100%);fill-opacity:1;" d="M 202.007812 145.023438 C 201.726562 145.023438 201.449219 145.007812 201.171875 144.96875 L 175.769531 141.441406 C 174.929688 141.328125 174.199219 140.792969 173.835938 140.023438 C 173.773438 139.898438 173.726562 139.773438 173.6875 139.644531 C 173.492188 138.964844 173.585938 138.234375 173.953125 137.625 L 176.054688 134.136719 C 176.511719 133.378906 177.335938 132.914062 178.21875 132.914062 L 178.222656 132.914062 L 200.363281 132.9375 L 216.898438 118.109375 C 217.667969 117.421875 218.648438 117.019531 219.679688 116.96875 C 221.53125 116.882812 223.246094 117.953125 223.992188 119.648438 C 224.734375 121.351562 224.359375 123.332031 223.039062 124.640625 L 206.539062 143.003906 C 205.382812 144.289062 203.738281 145.023438 202.007812 145.023438 Z M 202.007812 145.023438 "/>
<path style=" stroke:none;fill-rule:nonzero;fill:rgb(18.431373%,18.039216%,25.490196%);fill-opacity:1;" d="M 223.980469 111.265625 C 225 108.898438 225.867188 105.742188 223.90625 104.070312 C 222.769531 103.097656 221.132812 103.09375 219.640625 102.976562 C 215.441406 102.632812 211.117188 100.703125 209.0625 97.019531 C 207.015625 93.335938 208.15625 87.859375 212.03125 86.199219 C 214.640625 85.078125 217.632812 85.84375 220.367188 86.617188 L 228.570312 88.945312 C 231.007812 89.640625 233.566406 90.398438 235.320312 92.230469 C 238.117188 95.148438 237.910156 100.078125 235.6875 103.453125 C 233.464844 106.832031 230.117188 110.351562 226.285156 111.632812 Z M 223.980469 111.265625 "/>
<path style=" stroke:none;fill-rule:nonzero;fill:rgb(24.705882%,23.921569%,33.72549%);fill-opacity:1;" d="M 337.15625 264.003906 L 0.792969 264.003906 C 0.597656 264.007812 0.417969 263.902344 0.320312 263.734375 C 0.226562 263.5625 0.226562 263.359375 0.320312 263.1875 C 0.417969 263.023438 0.597656 262.917969 0.792969 262.917969 L 337.15625 262.917969 C 337.351562 262.917969 337.53125 263.023438 337.625 263.1875 C 337.726562 263.359375 337.726562 263.5625 337.625 263.734375 C 337.53125 263.902344 337.351562 264.007812 337.15625 264.003906 Z M 337.15625 264.003906 "/>
</g>
</svg>
