<?xml version="1.0" encoding="UTF-8"?>
<svg xmlns="http://www.w3.org/2000/svg" xmlns:xlink="http://www.w3.org/1999/xlink" width="242px" height="150px" viewBox="0 0 242 150" version="1.1">
<g id="surface1">
<path style=" stroke:none;fill-rule:nonzero;fill:rgb(90.196078%,90.196078%,90.196078%);fill-opacity:1;" d="M 16.804688 138.949219 C 19.050781 139.738281 21.542969 139.296875 23.386719 137.789062 C 25.691406 135.851562 26.414062 132.664062 27 129.710938 L 28.738281 120.976562 L 25.097656 123.484375 C 22.480469 125.289062 19.800781 127.152344 17.988281 129.765625 C 16.175781 132.378906 15.382812 135.945312 16.839844 138.769531 "/>
<path style=" stroke:none;fill-rule:nonzero;fill:rgb(94.901961%,94.901961%,94.901961%);fill-opacity:1;" d="M 17.113281 149.519531 C 16.746094 146.835938 16.367188 144.113281 16.625 141.398438 C 16.855469 138.988281 17.589844 136.636719 19.085938 134.703125 C 19.882812 133.679688 20.847656 132.804688 21.945312 132.113281 C 22.230469 131.933594 22.492188 132.386719 22.207031 132.566406 C 20.3125 133.765625 18.847656 135.535156 18.019531 137.621094 C 17.109375 139.941406 16.964844 142.46875 17.121094 144.933594 C 17.214844 146.421875 17.417969 147.902344 17.621094 149.382812 C 17.65625 149.519531 17.574219 149.660156 17.4375 149.703125 C 17.296875 149.742188 17.15625 149.660156 17.117188 149.519531 Z M 17.113281 149.519531 "/>
<path style=" stroke:none;fill-rule:nonzero;fill:rgb(42.352941%,38.823529%,100%);fill-opacity:1;" d="M 90.144531 91.65625 C 89.875 91.78125 89.585938 91.851562 89.289062 91.855469 L 61.816406 92.609375 C 59.4375 92.664062 57.464844 90.773438 57.414062 88.390625 C 57.359375 86.011719 59.25 84.035156 61.628906 83.984375 L 89.101562 83.230469 C 90.257812 83.207031 91.21875 84.125 91.246094 85.285156 L 91.339844 89.710938 C 91.359375 90.539062 90.890625 91.300781 90.144531 91.65625 Z M 90.144531 91.65625 "/>
<path style=" stroke:none;fill-rule:nonzero;fill:rgb(42.352941%,38.823529%,100%);fill-opacity:1;" d="M 54.894531 149.578125 L 50.46875 149.578125 C 49.308594 149.574219 48.371094 148.636719 48.371094 147.476562 L 48.371094 110.574219 C 48.371094 109.414062 49.308594 108.472656 50.46875 108.472656 L 54.894531 108.472656 C 56.054688 108.472656 56.992188 109.414062 56.992188 110.574219 L 56.992188 147.476562 C 56.992188 148.636719 56.054688 149.574219 54.894531 149.578125 Z M 54.894531 149.578125 "/>
<path style=" stroke:none;fill-rule:nonzero;fill:rgb(42.352941%,38.823529%,100%);fill-opacity:1;" d="M 66.648438 149.578125 L 62.222656 149.578125 C 61.0625 149.574219 60.125 148.636719 60.121094 147.476562 L 60.121094 110.574219 C 60.125 109.414062 61.0625 108.472656 62.222656 108.472656 L 66.648438 108.472656 C 67.804688 108.472656 68.746094 109.414062 68.746094 110.574219 L 68.746094 147.476562 C 68.746094 148.636719 67.804688 149.574219 66.648438 149.578125 Z M 66.648438 149.578125 "/>
<path style=" stroke:none;fill-rule:nonzero;fill:rgb(42.352941%,38.823529%,100%);fill-opacity:1;" d="M 74.285156 54.808594 C 74.285156 63.257812 67.4375 70.109375 58.992188 70.109375 C 50.542969 70.109375 43.695312 63.257812 43.695312 54.808594 C 43.695312 46.359375 50.542969 39.507812 58.992188 39.507812 C 67.4375 39.507812 74.285156 46.359375 74.285156 54.808594 Z M 74.285156 54.808594 "/>
<path style=" stroke:none;fill-rule:nonzero;fill:rgb(18.431373%,18.039216%,25.490196%);fill-opacity:1;" d="M 64.179688 121.558594 L 53.179688 121.558594 C 48.523438 121.578125 44.21875 119.101562 41.890625 115.066406 C 39.5625 111.035156 39.574219 106.066406 41.914062 102.042969 L 57.300781 75.382812 C 57.652344 74.777344 58.292969 74.40625 58.992188 74.40625 C 59.6875 74.40625 60.332031 74.777344 60.679688 75.382812 L 75.753906 101.503906 C 78.140625 105.640625 78.140625 110.738281 75.753906 114.875 C 73.367188 119.011719 68.957031 121.558594 64.179688 121.558594 Z M 64.179688 121.558594 "/>
<path style=" stroke:none;fill-rule:nonzero;fill:rgb(18.431373%,18.039216%,25.490196%);fill-opacity:1;" d="M 62.601562 61.230469 C 63.589844 61.203125 64.824219 61.167969 65.777344 60.476562 C 66.347656 60.039062 66.699219 59.371094 66.734375 58.652344 C 66.769531 58.140625 66.5625 57.644531 66.175781 57.304688 C 65.679688 56.886719 64.957031 56.789062 64.175781 57.015625 L 64.984375 51.097656 L 64.390625 51.019531 L 63.4375 57.976562 L 63.933594 57.746094 C 64.511719 57.484375 65.300781 57.347656 65.789062 57.761719 C 66.035156 57.984375 66.164062 58.304688 66.136719 58.632812 C 66.105469 59.167969 65.847656 59.664062 65.421875 59.992188 C 64.683594 60.53125 63.699219 60.601562 62.582031 60.632812 Z M 62.601562 61.230469 "/>
<path style=" stroke:none;fill-rule:nonzero;fill:rgb(18.431373%,18.039216%,25.490196%);fill-opacity:1;" d="M 67.921875 51.609375 L 71.152344 51.609375 L 71.152344 52.210938 L 67.921875 52.210938 Z M 67.921875 51.609375 "/>
<path style=" stroke:none;fill-rule:nonzero;fill:rgb(18.431373%,18.039216%,25.490196%);fill-opacity:1;" d="M 57.726562 51.609375 L 60.957031 51.609375 L 60.957031 52.210938 L 57.726562 52.210938 Z M 57.726562 51.609375 "/>
<path style=" stroke:none;fill-rule:nonzero;fill:rgb(42.352941%,38.823529%,100%);fill-opacity:1;" d="M 55.394531 118.136719 C 55.265625 117.871094 55.199219 117.578125 55.191406 117.28125 L 54.4375 89.800781 C 54.386719 87.417969 56.273438 85.445312 58.65625 85.394531 C 61.035156 85.339844 63.007812 87.230469 63.058594 89.613281 L 63.8125 117.09375 C 63.839844 118.253906 62.917969 119.214844 61.761719 119.238281 L 57.335938 119.335938 C 56.507812 119.351562 55.75 118.882812 55.394531 118.136719 Z M 55.394531 118.136719 "/>
<path style=" stroke:none;fill-rule:nonzero;fill:rgb(18.431373%,18.039216%,25.490196%);fill-opacity:1;" d="M 57.570312 43.5 C 59.429688 45.929688 62.378906 47.5625 65.496094 47.175781 C 68.464844 46.808594 70.914062 44.738281 71.53125 41.773438 C 72.074219 38.929688 71.203125 36 69.191406 33.917969 C 67.089844 31.703125 64.082031 30.515625 61.105469 30.109375 C 55.46875 29.335938 49.675781 31.324219 45.410156 35.027344 C 43.269531 36.871094 41.5625 39.164062 40.40625 41.742188 C 39.292969 44.300781 38.761719 47.074219 38.855469 49.863281 C 39.019531 55.375 41.433594 60.878906 45.597656 64.535156 C 46.113281 64.988281 46.65625 65.410156 47.21875 65.804688 C 47.691406 66.136719 48.144531 65.359375 47.671875 65.027344 C 43.40625 62.035156 40.6875 57.164062 39.941406 52.046875 C 39.148438 46.828125 40.691406 41.527344 44.15625 37.546875 C 47.597656 33.628906 52.648438 31.082031 57.878906 30.855469 C 63.140625 30.625 69.714844 32.976562 70.703125 38.835938 C 71.144531 41.460938 70.160156 44.222656 67.753906 45.539062 C 65.179688 46.945312 62.019531 46.367188 59.804688 44.546875 C 59.265625 44.105469 58.773438 43.601562 58.347656 43.046875 C 58 42.589844 57.21875 43.039062 57.570312 43.5 Z M 57.570312 43.5 "/>
<path style=" stroke:none;fill-rule:nonzero;fill:rgb(94.509804%,94.509804%,94.509804%);fill-opacity:1;" d="M 82.570312 22.304688 L 212.328125 3.550781 L 221.222656 65.148438 L 91.464844 83.902344 Z M 82.570312 22.304688 "/>
<path style=" stroke:none;fill-rule:nonzero;fill:rgb(100%,100%,100%);fill-opacity:1;" d="M 87.042969 27.050781 L 209.382812 9.371094 L 216.800781 60.761719 L 94.464844 78.441406 Z M 87.042969 27.050781 "/>
<path style=" stroke:none;fill-rule:nonzero;fill:rgb(89.803922%,89.803922%,89.803922%);fill-opacity:1;" d="M 82 18.753906 L 211.757812 0 L 212.554688 5.515625 L 82.796875 24.265625 Z M 82 18.753906 "/>
<path style=" stroke:none;fill-rule:nonzero;fill:rgb(100%,100%,100%);fill-opacity:1;" d="M 87.597656 21.402344 C 87.597656 21.972656 87.136719 22.4375 86.566406 22.4375 C 85.996094 22.4375 85.535156 21.972656 85.535156 21.402344 C 85.535156 20.832031 85.996094 20.371094 86.566406 20.371094 C 87.136719 20.371094 87.597656 20.832031 87.597656 21.402344 Z M 87.597656 21.402344 "/>
<path style=" stroke:none;fill-rule:nonzero;fill:rgb(100%,100%,100%);fill-opacity:1;" d="M 91.476562 20.84375 C 91.476562 21.414062 91.015625 21.875 90.445312 21.875 C 89.875 21.875 89.414062 21.414062 89.414062 20.84375 C 89.414062 20.273438 89.875 19.808594 90.445312 19.808594 C 91.015625 19.808594 91.476562 20.273438 91.476562 20.84375 Z M 91.476562 20.84375 "/>
<path style=" stroke:none;fill-rule:nonzero;fill:rgb(100%,100%,100%);fill-opacity:1;" d="M 95.355469 20.28125 C 95.355469 20.851562 94.894531 21.316406 94.324219 21.316406 C 93.753906 21.316406 93.289062 20.851562 93.289062 20.28125 C 93.289062 19.710938 93.753906 19.25 94.324219 19.25 C 94.894531 19.25 95.355469 19.710938 95.355469 20.28125 Z M 95.355469 20.28125 "/>
<path style=" stroke:none;fill-rule:nonzero;fill:rgb(90.196078%,90.196078%,90.196078%);fill-opacity:1;" d="M 111.03125 30.054688 L 242.136719 30.054688 L 242.136719 92.292969 L 111.03125 92.292969 Z M 111.03125 30.054688 "/>
<path style=" stroke:none;fill-rule:nonzero;fill:rgb(100%,100%,100%);fill-opacity:1;" d="M 114.78125 35.390625 L 238.386719 35.390625 L 238.386719 87.316406 L 114.78125 87.316406 Z M 114.78125 35.390625 "/>
<path style=" stroke:none;fill-rule:nonzero;fill:rgb(79.607843%,79.607843%,79.607843%);fill-opacity:1;" d="M 110.976562 26.460938 L 242.078125 26.460938 L 242.078125 32.03125 L 110.976562 32.03125 Z M 110.976562 26.460938 "/>
<path style=" stroke:none;fill-rule:nonzero;fill:rgb(100%,100%,100%);fill-opacity:1;" d="M 116.148438 29.734375 C 116.148438 30.304688 115.683594 30.769531 115.113281 30.769531 C 114.542969 30.769531 114.082031 30.304688 114.082031 29.734375 C 114.082031 29.164062 114.542969 28.703125 115.113281 28.703125 C 115.683594 28.703125 116.148438 29.164062 116.148438 29.734375 Z M 116.148438 29.734375 "/>
<path style=" stroke:none;fill-rule:nonzero;fill:rgb(100%,100%,100%);fill-opacity:1;" d="M 120.066406 29.734375 C 120.066406 30.304688 119.601562 30.769531 119.03125 30.769531 C 118.460938 30.769531 118 30.304688 118 29.734375 C 118 29.164062 118.460938 28.703125 119.03125 28.703125 C 119.601562 28.703125 120.066406 29.164062 120.066406 29.734375 Z M 120.066406 29.734375 "/>
<path style=" stroke:none;fill-rule:nonzero;fill:rgb(100%,100%,100%);fill-opacity:1;" d="M 123.984375 29.734375 C 123.984375 30.304688 123.523438 30.769531 122.953125 30.769531 C 122.382812 30.769531 121.917969 30.304688 121.917969 29.734375 C 121.917969 29.164062 122.382812 28.703125 122.953125 28.703125 C 123.523438 28.703125 123.984375 29.164062 123.984375 29.734375 Z M 123.984375 29.734375 "/>
<path style=" stroke:none;fill-rule:nonzero;fill:rgb(90.196078%,90.196078%,90.196078%);fill-opacity:1;" d="M 186.007812 43.285156 L 203.414062 43.285156 L 203.414062 44.59375 L 186.007812 44.59375 Z M 186.007812 43.285156 "/>
<path style=" stroke:none;fill-rule:nonzero;fill:rgb(90.196078%,90.196078%,90.196078%);fill-opacity:1;" d="M 186.007812 47.128906 L 212.886719 47.128906 L 212.886719 48.4375 L 186.007812 48.4375 Z M 186.007812 47.128906 "/>
<path style=" stroke:none;fill-rule:nonzero;fill:rgb(90.196078%,90.196078%,90.196078%);fill-opacity:1;" d="M 186.285156 50.789062 L 208.195312 50.789062 L 208.195312 52.097656 L 186.285156 52.097656 Z M 186.285156 50.789062 "/>
<path style=" stroke:none;fill-rule:nonzero;fill:rgb(90.196078%,90.196078%,90.196078%);fill-opacity:1;" d="M 186.007812 54.804688 L 198.796875 54.804688 L 198.796875 56.113281 L 186.007812 56.113281 Z M 186.007812 54.804688 "/>
<path style=" stroke:none;fill-rule:nonzero;fill:rgb(90.196078%,90.196078%,90.196078%);fill-opacity:1;" d="M 186.007812 58.726562 L 205.308594 58.726562 L 205.308594 60.035156 L 186.007812 60.035156 Z M 186.007812 58.726562 "/>
<path style=" stroke:none;fill-rule:nonzero;fill:rgb(90.196078%,90.196078%,90.196078%);fill-opacity:1;" d="M 178.070312 42.875 L 180.203125 42.875 L 180.203125 45.007812 L 178.070312 45.007812 Z M 178.070312 42.875 "/>
<path style=" stroke:none;fill-rule:nonzero;fill:rgb(90.196078%,90.196078%,90.196078%);fill-opacity:1;" d="M 178.070312 46.71875 L 180.203125 46.71875 L 180.203125 48.851562 L 178.070312 48.851562 Z M 178.070312 46.71875 "/>
<path style=" stroke:none;fill-rule:nonzero;fill:rgb(90.196078%,90.196078%,90.196078%);fill-opacity:1;" d="M 178.070312 50.378906 L 180.203125 50.378906 L 180.203125 52.511719 L 178.070312 52.511719 Z M 178.070312 50.378906 "/>
<path style=" stroke:none;fill-rule:nonzero;fill:rgb(90.196078%,90.196078%,90.196078%);fill-opacity:1;" d="M 178.070312 54.394531 L 180.203125 54.394531 L 180.203125 56.527344 L 178.070312 56.527344 Z M 178.070312 54.394531 "/>
<path style=" stroke:none;fill-rule:nonzero;fill:rgb(90.196078%,90.196078%,90.196078%);fill-opacity:1;" d="M 178.070312 58.316406 L 180.203125 58.316406 L 180.203125 60.449219 L 178.070312 60.449219 Z M 178.070312 58.316406 "/>
<path style=" stroke:none;fill-rule:nonzero;fill:rgb(90.196078%,90.196078%,90.196078%);fill-opacity:1;" d="M 186.007812 62.675781 L 203.414062 62.675781 L 203.414062 63.984375 L 186.007812 63.984375 Z M 186.007812 62.675781 "/>
<path style=" stroke:none;fill-rule:nonzero;fill:rgb(90.196078%,90.196078%,90.196078%);fill-opacity:1;" d="M 186.007812 66.515625 L 212.886719 66.515625 L 212.886719 67.824219 L 186.007812 67.824219 Z M 186.007812 66.515625 "/>
<path style=" stroke:none;fill-rule:nonzero;fill:rgb(90.196078%,90.196078%,90.196078%);fill-opacity:1;" d="M 186.285156 70.175781 L 208.195312 70.175781 L 208.195312 71.484375 L 186.285156 71.484375 Z M 186.285156 70.175781 "/>
<path style=" stroke:none;fill-rule:nonzero;fill:rgb(90.196078%,90.196078%,90.196078%);fill-opacity:1;" d="M 186.007812 74.191406 L 198.796875 74.191406 L 198.796875 75.5 L 186.007812 75.5 Z M 186.007812 74.191406 "/>
<path style=" stroke:none;fill-rule:nonzero;fill:rgb(90.196078%,90.196078%,90.196078%);fill-opacity:1;" d="M 186.007812 78.113281 L 205.308594 78.113281 L 205.308594 79.421875 L 186.007812 79.421875 Z M 186.007812 78.113281 "/>
<path style=" stroke:none;fill-rule:nonzero;fill:rgb(90.196078%,90.196078%,90.196078%);fill-opacity:1;" d="M 178.070312 62.261719 L 180.203125 62.261719 L 180.203125 64.394531 L 178.070312 64.394531 Z M 178.070312 62.261719 "/>
<path style=" stroke:none;fill-rule:nonzero;fill:rgb(90.196078%,90.196078%,90.196078%);fill-opacity:1;" d="M 178.070312 66.105469 L 180.203125 66.105469 L 180.203125 68.238281 L 178.070312 68.238281 Z M 178.070312 66.105469 "/>
<path style=" stroke:none;fill-rule:nonzero;fill:rgb(90.196078%,90.196078%,90.196078%);fill-opacity:1;" d="M 178.070312 69.765625 L 180.203125 69.765625 L 180.203125 71.898438 L 178.070312 71.898438 Z M 178.070312 69.765625 "/>
<path style=" stroke:none;fill-rule:nonzero;fill:rgb(90.196078%,90.196078%,90.196078%);fill-opacity:1;" d="M 178.070312 73.78125 L 180.203125 73.78125 L 180.203125 75.914062 L 178.070312 75.914062 Z M 178.070312 73.78125 "/>
<path style=" stroke:none;fill-rule:nonzero;fill:rgb(90.196078%,90.196078%,90.196078%);fill-opacity:1;" d="M 178.070312 77.703125 L 180.203125 77.703125 L 180.203125 79.835938 L 178.070312 79.835938 Z M 178.070312 77.703125 "/>
<path style=" stroke:none;fill-rule:nonzero;fill:rgb(90.196078%,90.196078%,90.196078%);fill-opacity:1;" d="M 130.933594 72.941406 L 148.34375 72.941406 L 148.34375 74.25 L 130.933594 74.25 Z M 130.933594 72.941406 "/>
<path style=" stroke:none;fill-rule:nonzero;fill:rgb(90.196078%,90.196078%,90.196078%);fill-opacity:1;" d="M 128.605469 76.34375 L 150.515625 76.34375 L 150.515625 77.652344 L 128.605469 77.652344 Z M 128.605469 76.34375 "/>
<path style=" stroke:none;fill-rule:nonzero;fill:rgb(90.196078%,90.196078%,90.196078%);fill-opacity:1;" d="M 150.953125 56.429688 C 150.953125 60.429688 148.847656 64.136719 145.414062 66.191406 C 141.980469 68.242188 137.71875 68.339844 134.195312 66.445312 L 134.195312 66.441406 C 129.300781 63.804688 127.03125 58.011719 128.832031 52.75 C 130.628906 47.488281 135.964844 44.300781 141.449219 45.210938 C 146.933594 46.125 150.953125 50.867188 150.953125 56.429688 Z M 150.953125 56.429688 "/>
<path style=" stroke:none;fill-rule:nonzero;fill:rgb(100%,100%,100%);fill-opacity:1;" d="M 142.734375 52.785156 C 142.734375 54.492188 141.351562 55.878906 139.644531 55.878906 C 137.9375 55.878906 136.554688 54.492188 136.554688 52.785156 C 136.554688 51.078125 137.9375 49.695312 139.644531 49.695312 C 141.351562 49.695312 142.734375 51.078125 142.734375 52.785156 Z M 142.734375 52.785156 "/>
<path style=" stroke:none;fill-rule:nonzero;fill:rgb(100%,100%,100%);fill-opacity:1;" d="M 144.921875 62.265625 C 141.464844 63.476562 137.699219 63.464844 134.253906 62.222656 L 136.554688 57.675781 L 142.734375 57.675781 Z M 144.921875 62.265625 "/>
<path style=" stroke:none;fill-rule:nonzero;fill:rgb(42.352941%,38.823529%,100%);fill-opacity:1;" d="M 105.433594 84.65625 C 100.046875 84.65625 95.664062 80 95.664062 74.273438 C 95.664062 68.550781 100.046875 63.894531 105.433594 63.894531 C 110.820312 63.894531 115.199219 68.550781 115.199219 74.273438 C 115.199219 80 110.820312 84.65625 105.433594 84.65625 Z M 105.433594 66.519531 C 101.492188 66.519531 98.289062 69.996094 98.289062 74.273438 C 98.289062 78.550781 101.492188 82.03125 105.433594 82.03125 C 109.375 82.03125 112.578125 78.550781 112.578125 74.273438 C 112.578125 69.996094 109.375 66.519531 105.433594 66.519531 Z M 105.433594 66.519531 "/>
<path style=" stroke:none;fill-rule:nonzero;fill:rgb(24.705882%,23.921569%,33.72549%);fill-opacity:1;" d="M 114.683594 102.746094 L 96.183594 102.746094 C 92.789062 102.742188 90.035156 99.988281 90.03125 96.589844 L 90.03125 78.4375 C 90.035156 76.109375 91.917969 74.226562 94.242188 74.222656 L 116.625 74.222656 C 118.949219 74.226562 120.832031 76.109375 120.835938 78.4375 L 120.835938 96.589844 C 120.832031 99.988281 118.078125 102.742188 114.683594 102.746094 Z M 114.683594 102.746094 "/>
<path style=" stroke:none;fill-rule:nonzero;fill:rgb(100%,100%,100%);fill-opacity:1;" d="M 109.039062 84.550781 C 109.039062 82.777344 107.75 81.265625 106 80.984375 C 104.25 80.707031 102.554688 81.742188 102.003906 83.429688 C 101.457031 85.117188 102.214844 86.953125 103.792969 87.757812 L 103.792969 93.402344 L 107.070312 93.402344 L 107.070312 87.757812 C 108.277344 87.144531 109.039062 85.902344 109.039062 84.550781 Z M 109.039062 84.550781 "/>
<path style=" stroke:none;fill-rule:nonzero;fill:rgb(24.705882%,23.921569%,33.72549%);fill-opacity:1;" d="M 114.550781 149.996094 L 0.300781 149.996094 C 0.132812 149.996094 0 149.859375 0 149.695312 C 0 149.53125 0.132812 149.394531 0.300781 149.394531 L 114.550781 149.394531 C 114.71875 149.394531 114.851562 149.53125 114.851562 149.695312 C 114.851562 149.859375 114.71875 149.996094 114.550781 149.996094 Z M 114.550781 149.996094 "/>
</g>
</svg>
